<svg width="35" height="33" viewBox="0 0 35 33" fill="none" xmlns="http://www.w3.org/2000/svg">
<path d="M16.0416 12.375V8.25H11.6666V5.5H16.0416V1.375H18.9583V5.5H23.3333V8.25H18.9583V12.375H16.0416ZM8.14836 29.4422C7.57718 28.9036 7.29159 28.2563 7.29159 27.5C7.29159 26.7437 7.57718 26.0964 8.14836 25.5578C8.71954 25.0193 9.40617 24.75 10.2083 24.75C11.0103 24.75 11.697 25.0193 12.2681 25.5578C12.8393 26.0964 13.1249 26.7437 13.1249 27.5C13.1249 28.2563 12.8393 28.9036 12.2681 29.4422C11.697 29.9807 11.0103 30.25 10.2083 30.25C9.40617 30.25 8.71954 29.9807 8.14836 29.4422ZM22.7317 29.4422C22.1605 28.9036 21.8749 28.2563 21.8749 27.5C21.8749 26.7437 22.1605 26.0964 22.7317 25.5578C23.3029 25.0193 23.9895 24.75 24.7916 24.75C25.5937 24.75 26.2803 25.0193 26.8515 25.5578C27.4227 26.0964 27.7083 26.7437 27.7083 27.5C27.7083 28.2563 27.4227 28.9036 26.8515 29.4422C26.2803 29.9807 25.5937 30.25 24.7916 30.25C23.9895 30.25 23.3029 29.9807 22.7317 29.4422ZM1.45825 5.5V2.75H6.23429L12.4322 15.125H22.6405L28.328 5.5H31.6458L25.2291 16.4313C24.9617 16.8896 24.6032 17.2448 24.1536 17.4969C23.7039 17.749 23.2117 17.875 22.677 17.875H11.8124L10.2083 20.625H27.7083V23.375H10.2083C9.1145 23.375 8.28204 22.9281 7.71086 22.0344C7.13968 21.1406 7.12145 20.2354 7.65617 19.3188L9.62492 15.95L4.37492 5.5H1.45825Z" fill="#EA8547"/>
</svg>
