<svg width="25" height="20" viewBox="0 0 25 20" fill="none" xmlns="http://www.w3.org/2000/svg">
<path d="M23.7627 7.10235L11.2227 17.1336C11.0776 17.2497 10.9053 17.3418 10.7157 17.4046C10.5261 17.4675 10.3229 17.4998 10.1177 17.4998C9.91247 17.4998 9.70925 17.4675 9.51966 17.4046C9.33007 17.3418 9.1578 17.2497 9.0127 17.1336L2.01856 11.5086C1.72606 11.2742 1.56177 10.9566 1.56177 10.6254C1.56177 10.2942 1.72606 9.97656 2.01856 9.7422L4.36231 7.8672C4.65433 7.63352 5.05013 7.50185 5.46316 7.50097C5.87618 7.50009 6.27285 7.63008 6.56642 7.86251L10.1445 10.618L10.1553 10.6266L19.2109 3.48829C19.5038 3.255 19.9002 3.12402 20.3135 3.12402C20.7268 3.12402 21.1232 3.255 21.416 3.48829L23.7598 5.32892C23.9061 5.44494 24.0223 5.58297 24.1017 5.73507C24.1812 5.88716 24.2222 6.05032 24.2224 6.21515C24.2227 6.37998 24.1822 6.54322 24.1033 6.69548C24.0244 6.84775 23.9087 6.98602 23.7627 7.10235Z" fill="#38EE69"/>
</svg>
