<svg width="54" height="59" viewBox="0 0 54 59" fill="none" xmlns="http://www.w3.org/2000/svg">
<g filter="url(#filter0_dd_196_257)">
<path d="M43.8751 21C43.8751 20.4808 44.0236 19.9733 44.3017 19.5417C44.5798 19.11 44.9752 18.7735 45.4377 18.5748C45.9002 18.3762 46.4092 18.3242 46.9002 18.4255C47.3912 18.5267 47.8422 18.7768 48.1962 19.1439C48.5502 19.511 48.7913 19.9787 48.889 20.4879C48.9866 20.9971 48.9365 21.5249 48.7449 22.0046C48.5533 22.4842 48.2289 22.8942 47.8126 23.1826C47.3964 23.4711 46.907 23.625 46.4064 23.625C45.735 23.625 45.0912 23.3485 44.6165 22.8562C44.1418 22.3639 43.8751 21.6962 43.8751 21ZM41.3439 15.75C41.8445 15.75 42.3339 15.5961 42.7501 15.3076C43.1664 15.0192 43.4908 14.6092 43.6824 14.1296C43.874 13.6499 43.9241 13.1221 43.8265 12.6129C43.7288 12.1037 43.4877 11.636 43.1337 11.2689C42.7797 10.9018 42.3287 10.6517 41.8377 10.5505C41.3467 10.4492 40.8377 10.5012 40.3752 10.6998C39.9127 10.8985 39.5173 11.235 39.2392 11.6667C38.9611 12.0983 38.8126 12.6058 38.8126 13.125C38.8126 13.8212 39.0793 14.4889 39.554 14.9812C40.0287 15.4735 40.6725 15.75 41.3439 15.75ZM47.3893 28C46.9435 27.9619 46.5013 28.1089 46.1599 28.4088C45.8186 28.7086 45.606 29.1368 45.5689 29.5991C45.2669 33.2576 43.9636 36.7505 41.8123 39.667C39.661 42.5834 36.7512 44.8019 33.4253 46.0615C30.0995 47.3212 26.4958 47.5695 23.0385 46.7773C19.5811 45.985 16.4139 44.1852 13.9094 41.5897C11.4049 38.9941 9.66744 35.7106 8.90134 32.1257C8.13524 28.5408 8.37242 24.8036 9.58497 21.3537C10.7975 17.9039 12.935 14.8849 15.7459 12.6521C18.5568 10.4193 21.9242 9.06551 25.4518 8.75003C25.6734 8.73107 25.8893 8.66703 26.087 8.56156C26.2847 8.4561 26.4605 8.31128 26.6043 8.13537C26.7481 7.95946 26.857 7.75591 26.9249 7.53634C26.9928 7.31676 27.0184 7.08546 27.0001 6.85565C26.9818 6.62584 26.9201 6.40201 26.8184 6.19694C26.7167 5.99188 26.577 5.8096 26.4074 5.6605C26.2378 5.5114 26.0415 5.39842 25.8298 5.32799C25.618 5.25756 25.395 5.23107 25.1734 5.25003C21.0053 5.62183 17.0263 7.2204 13.7046 9.85768C10.3828 12.495 7.85649 16.0612 6.42279 20.1369C4.98909 24.2126 4.70767 28.6281 5.61165 32.864C6.51562 37.0999 8.56738 40.98 11.5255 44.0477C14.4837 47.1154 18.2252 49.2432 22.3098 50.1806C26.3944 51.1181 30.6523 50.8263 34.5824 49.3395C38.5125 47.8527 41.9514 45.2328 44.4945 41.788C47.0376 38.3432 48.5791 34.2168 48.9376 29.8944C48.9567 29.6644 48.9317 29.4328 48.864 29.2129C48.7964 28.993 48.6875 28.7892 48.5436 28.6131C48.3997 28.437 48.2236 28.2922 48.0255 28.187C47.8274 28.0818 47.6112 28.0182 47.3893 28ZM27.0001 12.25C30.0039 12.25 32.9403 13.1737 35.4378 14.9044C37.9354 16.635 39.882 19.0948 41.0315 21.9728C42.181 24.8507 42.4818 28.0175 41.8958 31.0727C41.3098 34.1279 39.8633 36.9343 37.7393 39.137C35.6153 41.3396 32.9091 42.8397 29.963 43.4474C27.017 44.0551 23.9632 43.7432 21.1881 42.5511C18.4129 41.359 16.041 39.3403 14.3722 36.7503C12.7033 34.1602 11.8126 31.1151 11.8126 28C11.8171 23.8243 13.4186 19.8209 16.2659 16.8682C19.1131 13.9155 22.9735 12.2547 27.0001 12.25ZM25.3126 28C25.3126 28.4642 25.4904 28.9093 25.8069 29.2375C26.1233 29.5657 26.5525 29.75 27.0001 29.75H37.1251C37.5727 29.75 38.0019 29.5657 38.3183 29.2375C38.6348 28.9093 38.8126 28.4642 38.8126 28C38.8126 27.5359 38.6348 27.0908 38.3183 26.7626C38.0019 26.4344 37.5727 26.25 37.1251 26.25H28.6876V17.5C28.6876 17.0359 28.5098 16.5908 28.1933 16.2626C27.8769 15.9344 27.4477 15.75 27.0001 15.75C26.5525 15.75 26.1233 15.9344 25.8069 16.2626C25.4904 16.5908 25.3126 17.0359 25.3126 17.5V28ZM33.7501 10.5C34.2507 10.5 34.7401 10.3461 35.1564 10.0576C35.5727 9.76919 35.8971 9.35923 36.0887 8.87957C36.2803 8.39991 36.3304 7.87211 36.2327 7.36291C36.135 6.85371 35.894 6.38598 35.54 6.01887C35.186 5.65176 34.7349 5.40175 34.2439 5.30046C33.7529 5.19918 33.244 5.25116 32.7814 5.44984C32.3189 5.64852 31.9236 5.98497 31.6454 6.41665C31.3673 6.84833 31.2189 7.35585 31.2189 7.87503C31.2189 8.57122 31.4855 9.2389 31.9602 9.73118C32.4349 10.2235 33.0788 10.5 33.7501 10.5Z" fill="#A9991B"/>
</g>
<defs>
<filter id="filter0_dd_196_257" x="1.09277" y="5.24408" width="51.8511" height="53.4747" filterUnits="userSpaceOnUse" color-interpolation-filters="sRGB">
<feFlood flood-opacity="0" result="BackgroundImageFix"/>
<feColorMatrix in="SourceAlpha" type="matrix" values="0 0 0 0 0 0 0 0 0 0 0 0 0 0 0 0 0 0 127 0" result="hardAlpha"/>
<feOffset dy="4"/>
<feGaussianBlur stdDeviation="2"/>
<feComposite in2="hardAlpha" operator="out"/>
<feColorMatrix type="matrix" values="0 0 0 0 0 0 0 0 0 0 0 0 0 0 0 0 0 0 0.25 0"/>
<feBlend mode="normal" in2="BackgroundImageFix" result="effect1_dropShadow_196_257"/>
<feColorMatrix in="SourceAlpha" type="matrix" values="0 0 0 0 0 0 0 0 0 0 0 0 0 0 0 0 0 0 127 0" result="hardAlpha"/>
<feOffset dy="4"/>
<feGaussianBlur stdDeviation="2"/>
<feComposite in2="hardAlpha" operator="out"/>
<feColorMatrix type="matrix" values="0 0 0 0 0 0 0 0 0 0 0 0 0 0 0 0 0 0 0.25 0"/>
<feBlend mode="normal" in2="effect1_dropShadow_196_257" result="effect2_dropShadow_196_257"/>
<feBlend mode="normal" in="SourceGraphic" in2="effect2_dropShadow_196_257" result="shape"/>
</filter>
</defs>
</svg>
