<svg width="35" height="35" viewBox="0 0 35 35" fill="none" xmlns="http://www.w3.org/2000/svg">
<path d="M13.3802 15.7865C12.2378 14.6441 11.6667 13.2708 11.6667 11.6667C11.6667 10.0625 12.2378 8.68925 13.3802 7.54689C14.5226 6.40452 15.8958 5.83334 17.5 5.83334C19.1042 5.83334 20.4774 6.40452 21.6198 7.54689C22.7621 8.68925 23.3333 10.0625 23.3333 11.6667C23.3333 13.2708 22.7621 14.6441 21.6198 15.7865C20.4774 16.9288 19.1042 17.5 17.5 17.5C15.8958 17.5 14.5226 16.9288 13.3802 15.7865ZM5.83333 29.1667V25.0833C5.83333 24.257 6.046 23.4974 6.47135 22.8047C6.8967 22.112 7.4618 21.5833 8.16666 21.2188C9.67361 20.4653 11.2049 19.9002 12.7604 19.5234C14.316 19.1467 15.8958 18.9583 17.5 18.9583C19.1042 18.9583 20.684 19.1467 22.2396 19.5234C23.7951 19.9002 25.3264 20.4653 26.8333 21.2188C27.5382 21.5833 28.1033 22.112 28.5286 22.8047C28.954 23.4974 29.1667 24.257 29.1667 25.0833V29.1667H5.83333ZM8.75 26.25H26.25V25.0833C26.25 24.816 26.1832 24.5729 26.0495 24.3542C25.9158 24.1354 25.7396 23.9653 25.5208 23.8438C24.2083 23.1875 22.8837 22.6953 21.5469 22.3672C20.2101 22.0391 18.8611 21.875 17.5 21.875C16.1389 21.875 14.7899 22.0391 13.4531 22.3672C12.1163 22.6953 10.7917 23.1875 9.47916 23.8438C9.26041 23.9653 9.0842 24.1354 8.95052 24.3542C8.81684 24.5729 8.75 24.816 8.75 25.0833V26.25ZM19.5599 13.7266C20.1311 13.1554 20.4167 12.4688 20.4167 11.6667C20.4167 10.8646 20.1311 10.178 19.5599 9.60678C18.9887 9.0356 18.3021 8.75001 17.5 8.75001C16.6979 8.75001 16.0113 9.0356 15.4401 9.60678C14.8689 10.178 14.5833 10.8646 14.5833 11.6667C14.5833 12.4688 14.8689 13.1554 15.4401 13.7266C16.0113 14.2978 16.6979 14.5833 17.5 14.5833C18.3021 14.5833 18.9887 14.2978 19.5599 13.7266Z" fill="#9D6100"/>
</svg>
