<svg width="32" height="32" viewBox="0 0 32 32" fill="none" xmlns="http://www.w3.org/2000/svg">
<path d="M7.99999 29.3333C7.26666 29.3333 6.63888 29.0722 6.11666 28.55C5.59444 28.0278 5.33333 27.4 5.33333 26.6666V13.3333C5.33333 12.6 5.59444 11.9722 6.11666 11.45C6.63888 10.9278 7.26666 10.6666 7.99999 10.6666H9.33333V7.99998C9.33333 6.15554 9.98333 4.58331 11.2833 3.28331C12.5833 1.98331 14.1556 1.33331 16 1.33331C17.8444 1.33331 19.4167 1.98331 20.7167 3.28331C22.0167 4.58331 22.6667 6.15554 22.6667 7.99998V10.6666H24C24.7333 10.6666 25.3611 10.9278 25.8833 11.45C26.4056 11.9722 26.6667 12.6 26.6667 13.3333V26.6666C26.6667 27.4 26.4056 28.0278 25.8833 28.55C25.3611 29.0722 24.7333 29.3333 24 29.3333H7.99999ZM7.99999 26.6666H24V13.3333H7.99999V26.6666ZM17.8833 21.8833C18.4056 21.3611 18.6667 20.7333 18.6667 20C18.6667 19.2666 18.4056 18.6389 17.8833 18.1166C17.3611 17.5944 16.7333 17.3333 16 17.3333C15.2667 17.3333 14.6389 17.5944 14.1167 18.1166C13.5944 18.6389 13.3333 19.2666 13.3333 20C13.3333 20.7333 13.5944 21.3611 14.1167 21.8833C14.6389 22.4055 15.2667 22.6666 16 22.6666C16.7333 22.6666 17.3611 22.4055 17.8833 21.8833ZM12 10.6666H20V7.99998C20 6.88887 19.6111 5.94442 18.8333 5.16665C18.0556 4.38887 17.1111 3.99998 16 3.99998C14.8889 3.99998 13.9444 4.38887 13.1667 5.16665C12.3889 5.94442 12 6.88887 12 7.99998V10.6666Z" fill="#9D6100"/>
</svg>
