<svg width="32" height="32" viewBox="0 0 32 32" fill="none" xmlns="http://www.w3.org/2000/svg">
<path d="M7.99999 10.6667H20V8.00001C20 6.8889 19.6111 5.94445 18.8333 5.16668C18.0556 4.3889 17.1111 4.00001 16 4.00001C14.8889 4.00001 13.9444 4.3889 13.1667 5.16668C12.3889 5.94445 12 6.8889 12 8.00001H9.33333C9.33333 6.15557 9.98333 4.58334 11.2833 3.28334C12.5833 1.98334 14.1556 1.33334 16 1.33334C17.8444 1.33334 19.4167 1.98334 20.7167 3.28334C22.0167 4.58334 22.6667 6.15557 22.6667 8.00001V10.6667H24C24.7333 10.6667 25.3611 10.9278 25.8833 11.45C26.4056 11.9722 26.6667 12.6 26.6667 13.3333V26.6667C26.6667 27.4 26.4056 28.0278 25.8833 28.55C25.3611 29.0722 24.7333 29.3333 24 29.3333H7.99999C7.26666 29.3333 6.63888 29.0722 6.11666 28.55C5.59444 28.0278 5.33333 27.4 5.33333 26.6667V13.3333C5.33333 12.6 5.59444 11.9722 6.11666 11.45C6.63888 10.9278 7.26666 10.6667 7.99999 10.6667ZM7.99999 26.6667H24V13.3333H7.99999V26.6667ZM17.8833 21.8833C18.4056 21.3611 18.6667 20.7333 18.6667 20C18.6667 19.2667 18.4056 18.6389 17.8833 18.1167C17.3611 17.5945 16.7333 17.3333 16 17.3333C15.2667 17.3333 14.6389 17.5945 14.1167 18.1167C13.5944 18.6389 13.3333 19.2667 13.3333 20C13.3333 20.7333 13.5944 21.3611 14.1167 21.8833C14.6389 22.4056 15.2667 22.6667 16 22.6667C16.7333 22.6667 17.3611 22.4056 17.8833 21.8833Z" fill="#9D6100"/>
</svg>
