<svg width="34" height="33" viewBox="0 0 34 33" fill="none" xmlns="http://www.w3.org/2000/svg">
<path d="M17 2.0625C13.9014 2.06591 10.9306 3.26215 8.73957 5.38878C6.5485 7.5154 5.31602 10.3987 5.3125 13.4062C5.3125 23.1129 15.9375 30.4438 16.3904 30.7506C16.569 30.8721 16.7819 30.9372 17 30.9372C17.2181 30.9372 17.431 30.8721 17.6096 30.7506C18.0625 30.4438 28.6875 23.1129 28.6875 13.4062C28.684 10.3987 27.4515 7.5154 25.2604 5.38878C23.0694 3.26215 20.0986 2.06591 17 2.0625ZM17 9.28125C17.8406 9.28125 18.6623 9.52318 19.3612 9.97644C20.0601 10.4297 20.6048 11.0739 20.9265 11.8277C21.2482 12.5814 21.3323 13.4108 21.1683 14.211C21.0044 15.0112 20.5996 15.7462 20.0052 16.3231C19.4108 16.9 18.6536 17.2928 17.8291 17.452C17.0047 17.6112 16.1502 17.5295 15.3736 17.2173C14.597 16.905 13.9333 16.3763 13.4663 15.698C12.9993 15.0196 12.75 14.2221 12.75 13.4062C12.75 12.3122 13.1978 11.263 13.9948 10.4894C14.7918 9.71585 15.8728 9.28125 17 9.28125Z" fill="#ED1717"/>
</svg>
