<svg width="45" height="47" viewBox="0 0 45 47" fill="none" xmlns="http://www.w3.org/2000/svg">
<path d="M29.5312 23.5C29.5312 24.9525 29.1189 26.3723 28.3463 27.58C27.5737 28.7876 26.4755 29.7289 25.1907 30.2847C23.906 30.8406 22.4922 30.986 21.1283 30.7026C19.7643 30.4193 18.5115 29.7199 17.5282 28.6928C16.5448 27.6658 15.8752 26.3572 15.6039 24.9327C15.3326 23.5081 15.4718 22.0316 16.004 20.6897C16.5362 19.3478 17.4374 18.2008 18.5936 17.3939C19.7499 16.587 21.1094 16.1562 22.5 16.1562C24.3648 16.1563 26.1532 16.93 27.4718 18.3072C28.7905 19.6844 29.5312 21.5523 29.5312 23.5ZM43.5938 11.75V35.25C43.5938 35.6395 43.4456 36.0131 43.1819 36.2886C42.9181 36.564 42.5605 36.7188 42.1875 36.7188H2.8125C2.43954 36.7188 2.08185 36.564 1.81813 36.2886C1.55441 36.0131 1.40625 35.6395 1.40625 35.25V11.75C1.40625 11.3605 1.55441 10.9869 1.81813 10.7114C2.08185 10.436 2.43954 10.2812 2.8125 10.2812H42.1875C42.5605 10.2812 42.9181 10.436 43.1819 10.7114C43.4456 10.9869 43.5938 11.3605 43.5938 11.75ZM40.7812 20.2596C39.1845 19.7664 37.7312 18.8639 36.5537 17.6341C35.3763 16.4044 34.5122 14.8865 34.04 13.2188H10.96C10.4878 14.8865 9.62368 16.4044 8.44626 17.6341C7.26884 18.8639 5.81554 19.7664 4.21875 20.2596V26.7404C5.81554 27.2336 7.26884 28.1361 8.44626 29.3659C9.62368 30.5956 10.4878 32.1135 10.96 33.7812H34.04C34.5122 32.1135 35.3763 30.5956 36.5537 29.3659C37.7312 28.1361 39.1845 27.2336 40.7812 26.7404V20.2596Z" fill="#9F9018"/>
</svg>
