<svg width="41" height="38" viewBox="0 0 41 38" fill="none" xmlns="http://www.w3.org/2000/svg">
<path d="M15.6739 17.1396C14.3357 15.8993 13.6666 14.4083 13.6666 12.6666C13.6666 10.925 14.3357 9.43401 15.6739 8.19373C17.0121 6.95345 18.6208 6.33331 20.4999 6.33331C22.3791 6.33331 23.9878 6.95345 25.326 8.19373C26.6642 9.43401 27.3333 10.925 27.3333 12.6666C27.3333 14.4083 26.6642 15.8993 25.326 17.1396C23.9878 18.3798 22.3791 19 20.4999 19C18.6208 19 17.0121 18.3798 15.6739 17.1396ZM6.83325 31.6666V27.2333C6.83325 26.3361 7.08238 25.5114 7.58065 24.7594C8.07891 24.0073 8.74089 23.4333 9.56659 23.0375C11.3319 22.2194 13.1256 21.6059 14.9478 21.1969C16.7701 20.7878 18.6208 20.5833 20.4999 20.5833C22.3791 20.5833 24.2298 20.7878 26.052 21.1969C27.8742 21.6059 29.668 22.2194 31.4333 23.0375C32.2589 23.4333 32.9209 24.0073 33.4192 24.7594C33.9175 25.5114 34.1666 26.3361 34.1666 27.2333V31.6666H6.83325ZM10.2499 28.5H30.7499V27.2333C30.7499 26.943 30.6716 26.6791 30.515 26.4416C30.3584 26.2041 30.152 26.0194 29.8958 25.8875C28.3583 25.175 26.8065 24.6406 25.2405 24.2844C23.6746 23.9281 22.0944 23.75 20.4999 23.75C18.9055 23.75 17.3253 23.9281 15.7593 24.2844C14.1933 24.6406 12.6416 25.175 11.1041 25.8875C10.8478 26.0194 10.6414 26.2041 10.4848 26.4416C10.3282 26.6791 10.2499 26.943 10.2499 27.2333V28.5ZM22.9129 14.9031C23.582 14.283 23.9166 13.5375 23.9166 12.6666C23.9166 11.7958 23.582 11.0503 22.9129 10.4302C22.2438 9.81005 21.4395 9.49998 20.4999 9.49998C19.5603 9.49998 18.756 9.81005 18.0869 10.4302C17.4178 11.0503 17.0833 11.7958 17.0833 12.6666C17.0833 13.5375 17.4178 14.283 18.0869 14.9031C18.756 15.5232 19.5603 15.8333 20.4999 15.8333C21.4395 15.8333 22.2438 15.5232 22.9129 14.9031Z" fill="#EA8547"/>
</svg>
